<?xml version="1.0" encoding="utf-8"?>
<!-- Generator: Adobe Illustrator 16.0.4, SVG Export Plug-In . SVG Version: 6.00 Build 0)  -->
<!DOCTYPE svg PUBLIC "-//W3C//DTD SVG 1.1//EN" "http://www.w3.org/Graphics/SVG/1.1/DTD/svg11.dtd">
<svg version="1.1" id="Layer_1" xmlns="http://www.w3.org/2000/svg" xmlns:xlink="http://www.w3.org/1999/xlink" x="0px" y="0px"
	 width="1472.28px" height="1450.441px" viewBox="0 0 1472.28 1450.441" enable-background="new 0 0 1472.28 1450.441"
	 xml:space="preserve">
<path fill="#212121" stroke="#032222" stroke-width="32" stroke-miterlimit="10" d="M990.305,708.136
	c20.135-40.268,30.573-84.56,52.215-124.837c11.831-22.021,26.533-42.639,49.609-54.029c6.28-3.104,96.453-10.767,81.299,10.88
	c-23.969,34.248-79.671,35.583-106.88,76.714c-16.785,25.366-15.819,57.864-6.319,81.04c0-25.791,75.272-19.543,65.562-52.363
	c-6.003-20.298-27.742-22.72-17.811-46.552c19.741-16.45,49.449,4.322,59.692,20.466c6.82-6.823,13.646-13.646,20.466-20.466
	C1234.059,709.192,989.287,833.991,990.305,708.136z M765.182,1424.429c0-36.758,382.394-376.72,327.453-404.193
	c-59.314,38.683-99.304,102.816-150.084,151.786C879.452,1235.122,765.182,1326.107,765.182,1424.429z M507.66,559.763
	c61.397,61.396,86.76,67.978,177.37,44.343c160.762-41.938-36.669-32.287-36.669-50.526c4.672-6.216,8.298-12.968,10.875-20.252
	C631.478,520.991,486.018,538.12,507.66,559.763z M429.208,984.421c23.334,0,187.602-50.145,187.602,0
	C616.81,1048.901,429.208,1055.162,429.208,984.421C439.441,984.421,429.208,1003.181,429.208,984.421z M183.623,1427.842
	c53.865,7.929,159.599,42.04,209.772,11.938c81.194-51.672,213.066,32.461,298.455-10.234
	c-2.902,1.453-117.999-54.354-132.228-63.101c-41.175-25.312-54.106-86.329-103.123-109.148
	c-7.939,71.42-71.913,76.086-129.505,96.2C292.212,1365.644,212.92,1427.842,183.623,1427.842z M487.194,1250.471
	c106.468,0,172.285-53.403,260.429-99.18c75.39-39.156,184.632-50.768,223.896-129.296c29.125-58.254,39.252-103.962,39.252-168.62
	c0-27.918,6.426-32.646,28.992-37.795c51.01,0,30.471,10.01,39.227,49.46c0,85.23,46.181,121.018,73.172,195.964
	c33.854,94.012-57.174,203.949-114.435,268.295c-21.716,24.4-105.588,135.549-125.875,78.077
	c-18.094-33.174-138.144,1.137-138.144,39.227c190.139,0,380.274,0,570.41,0c82.92,0,70.843-30.983,70.843-109.921
	c0-57.221,0-114.446,0-171.67c0-51.535-24.898-33.92-74.217-33.92c-121.464,0-163.194-77.295-223.543-165.168
	c-34.728-50.567-15.089-160.007,10.06-214.099c36.828-79.215,89.87-109.642,89.87-202.232c0-149.869-5.45-360.869-156.902-443.482
	C970.848,62.7,862.749,37.893,763.481,37.893c-52.434,5.338-144.604,23.504-187.603,59.692
	c93.371-20.751,192.853-53.667,289.105-39.416c2.937,0.435,119.968,21.137,115.087,39.416
	c-13.544,50.766-77.791-11.043-70.775,48.605c14.305,121.586,128.244,244.993,78.835,369.592
	c-33.509,84.511-53.474,140.516-42.81,232.646c5.353,46.231,8.134,92.538,11.226,138.961c3.913,58.641-41.633,72.091-84.67,101.137
	c-48.573,32.786-111.149,34.551-157.855,67.524c-61.86-32.271-53.144-104.944-113.335-135.131
	c-24.822-12.45-56.153-25.675-64.033-55.88c0-8.712,22.896-44.28,20.466-49.46c9.091-20.001-40.222-37.375-59.692-39.225
	c-21.506-8.603-52.224,4.899-72.054,11.514c-19.197,6.397,10.01,26.093,5.755,36.027c-5.357,12.498-6.927,71.842-22.385,71.842
	c-10.219-74.571-88.796-172.802-45.73-248.429c25.264-44.362,85.407,14.445,79.146-76.33c-3.349-48.579-93.623-15.85-101.629-47.883
	C297.895,352.559,449.388,183.153,575.878,97.585c-65.243,0-193.358,137.728-212.866,194.546
	c-26.659,77.662-49.533,175.106-47.879,258.284c2.668,134.354,74.854,250.336,74.854,383.696
	C389.987,994.393,389.132,1250.471,487.194,1250.471z"/>
</svg>
