<?xml version="1.0" encoding="UTF-8" standalone="no"?>
<svg xmlns="http://www.w3.org/2000/svg" width="134" height="71" viewBox="0 0 134.3 70.7"><path d="M0 0.4 3.6 16.4 13.8 51 20 68.4 33.3 27h1.3l8.9 29.3 4.4 12 13.6-44 6.7-16.7 14.4-0.7L72 32.4c3.9 0.7 7.6 1.3 10.7 4 13.6 12.2-3.2 39.7-14.7 20l-6.7 1.3C65.5 73.4 87.3 75.5 94 60.4c3.1-7 3.3-18.7-1.1-25.3-2-3-5.2-7.2-9.8-9.3-0.1-2.3 2.2-4.8 3.3-6.7 3.5-5.8 8-11.8 8.2-18.7h-24L60.8 0 57.6 12.4 48 43h-1.3l-9.6-30.7-4.6-11.8-5.9-0.2 2.7 14.7-8 28h-2.7l-12-42.7H0M102.7 28.4H104c1.1-13.8 15.6-28.8 25.3-12h1.3l2.7-12-4 5.3c-2.4-2.4-4.9-5.8-8-7.3-15.1-7.5-18.7 16.8-18.7 26m30.7 26.7c-8.8 10.5-15.9 12.7-28 6.7 3.7 6.5 12.4 10.9 20 7.3 4.8-2.2 11.5-9.3 8-14z"/></svg>
